<svg width="22" height="22" viewBox="0 0 22 22" fill="none" xmlns="http://www.w3.org/2000/svg">
<path d="M15.584 11.0002C15.584 10.4939 15.9944 10.0835 16.5007 10.0835C17.0069 10.0835 17.4173 10.4939 17.4173 11.0002C17.4173 11.5064 17.0069 11.9168 16.5007 11.9168C15.9944 11.9168 15.584 11.5064 15.584 11.0002Z" stroke="#3F3F3F" stroke-width="2" stroke-linecap="round" stroke-linejoin="round"/>
<path d="M10.084 11.0002C10.084 10.4939 10.4944 10.0835 11.0007 10.0835C11.5069 10.0835 11.9173 10.4939 11.9173 11.0002C11.9173 11.5064 11.5069 11.9168 11.0007 11.9168C10.4944 11.9168 10.084 11.5064 10.084 11.0002Z" stroke="#3F3F3F" stroke-width="2" stroke-linecap="round" stroke-linejoin="round"/>
<path d="M4.58398 11.0002C4.58398 10.4939 4.99439 10.0835 5.50065 10.0835C6.00691 10.0835 6.41732 10.4939 6.41732 11.0002C6.41732 11.5064 6.00691 11.9168 5.50065 11.9168C4.99439 11.9168 4.58398 11.5064 4.58398 11.0002Z" stroke="#3F3F3F" stroke-width="2" stroke-linecap="round" stroke-linejoin="round"/>
</svg>
