<svg width="25" height="24" viewBox="0 0 25 24" fill="none" xmlns="http://www.w3.org/2000/svg">
<path d="M20.1585 9.70116L13.1585 3.57616C12.7815 3.24626 12.2185 3.24626 11.8415 3.57616L4.8415 9.70116C4.62448 9.89105 4.5 10.1654 4.5 10.4537V19C4.5 19.5523 4.94772 20 5.5 20H9.5C10.0523 20 10.5 19.5523 10.5 19V15C10.5 14.4477 10.9477 14 11.5 14H13.5C14.0523 14 14.5 14.4477 14.5 15V19C14.5 19.5523 14.9477 20 15.5 20H19.5C20.0523 20 20.5 19.5523 20.5 19V10.4537C20.5 10.1654 20.3755 9.89105 20.1585 9.70116Z" stroke="#8C8C8C" stroke-width="1.5" stroke-linecap="round" stroke-linejoin="round"/>
</svg>
