<svg width="25" height="24" viewBox="0 0 25 24" fill="none" xmlns="http://www.w3.org/2000/svg">
<path d="M20.5 15.5845C19.937 16.919 19.0565 18.0949 17.9353 19.0095C16.8142 19.9241 15.4866 20.5495 14.0687 20.831C12.6507 21.1125 11.1855 21.0415 9.80124 20.6243C8.41695 20.2071 7.1557 19.4564 6.12775 18.4377C5.0998 17.419 4.33646 16.1635 3.90445 14.7808C3.47244 13.3981 3.38493 11.9304 3.64956 10.506C3.91418 9.08153 4.5229 7.74377 5.42248 6.60963C6.32206 5.47549 7.48512 4.5795 8.80998 4" stroke="#8C8C8C" stroke-width="1.5" stroke-linecap="round" stroke-linejoin="round"/>
<path d="M21.5 12C21.5 10.8181 21.2672 9.64778 20.8149 8.55585C20.3626 7.46392 19.6997 6.47177 18.864 5.63604C18.0282 4.80031 17.0361 4.13738 15.9442 3.68508C14.8522 3.23279 13.6819 3 12.5 3V12H21.5Z" stroke="#8C8C8C" stroke-width="1.5" stroke-linecap="round" stroke-linejoin="round"/>
</svg>
